<?xml version="1.0" encoding="UTF-8" standalone="no"?>
<svg
   xmlns:osb="http://www.openswatchbook.org/uri/2009/osb"
   xmlns:dc="http://purl.org/dc/elements/1.1/"
   xmlns:cc="http://creativecommons.org/ns#"
   xmlns:rdf="http://www.w3.org/1999/02/22-rdf-syntax-ns#"
   xmlns:svg="http://www.w3.org/2000/svg"
   xmlns="http://www.w3.org/2000/svg"
   xmlns:sodipodi="http://sodipodi.sourceforge.net/DTD/sodipodi-0.dtd"
   xmlns:inkscape="http://www.inkscape.org/namespaces/inkscape"
   width="6.66667in"
   height="8.33333in"
   viewBox="0 0 2000 2500"
   version="1.1"
   id="svg3"
   sodipodi:docname="logo.svg"
   inkscape:export-filename="/Users/Elkan/Desktop/path/export.png"
   inkscape:export-xdpi="200"
   inkscape:export-ydpi="200"
   inkscape:version="0.92.2 5c3e80d, 2017-08-06">
  <defs
     id="defs7">
    <linearGradient
       id="linearGradient2849"
       osb:paint="solid">
      <stop
         style="stop-color:#000000;stop-opacity:1;"
         offset="0"
         id="stop2847" />
    </linearGradient>
    <linearGradient
       id="linearGradient1123"
       osb:paint="solid">
      <stop
         style="stop-color:#ff9000;stop-opacity:1;"
         offset="0"
         id="stop1121" />
    </linearGradient>
  </defs>
  <sodipodi:namedview
     pagecolor="#ffffff"
     bordercolor="#666666"
     borderopacity="1"
     objecttolerance="10"
     gridtolerance="10"
     guidetolerance="10"
     inkscape:pageopacity="0"
     inkscape:pageshadow="2"
     inkscape:window-width="2560"
     inkscape:window-height="1396"
     id="namedview5"
     showgrid="false"
     inkscape:zoom="1"
     inkscape:cx="306.52588"
     inkscape:cy="367.00085"
     inkscape:window-x="1683"
     inkscape:window-y="3"
     inkscape:window-maximized="0"
     inkscape:current-layer="svg3" />
  <path
     d="m 501.974,249.26286 c -9.11,-12.3 -20.78,-21.42 -34.64,-27.36 -11.43,-4.82 -23.21,-7.12 -35.33,-6.88 -12.14,0.27 -25.1,1.58 -38.82,3.92 0,0 -60.5,11.07 -60.5,11.07 0,0 35.85,185.56 35.85,185.56 0,0 57.45,-10.49 57.45,-10.49 12.68,-2.17 24.51,-5.07 35.49,-8.71 11.01,-3.61 20.82,-9.29 29.48,-17.06 10.44,-9.12 18.46,-21.1 24.01,-35.98 5.67,-14.89 7.37,-31.06 4.91,-48.49 -2.55,-18.09 -8.61,-33.28 -17.9,-45.58 z m -32.83,84.48 c -2.7,9.06 -7.47,16.6 -14.38,22.63 -5.83,5.11 -12.3,8.45 -19.42,10.02 -7.13,1.59 -15.92,3.29 -26.36,5.11 0,0 -0.87,0.16 -0.87,0.16 0,0 -20.34,-115.22 -20.34,-115.22 0,0 0.9,-0.16 0.9,-0.16 9.93,-1.74 18.55,-3.05 25.77,-3.94 7.17,-0.86 14.33,-0.1 21.47,2.3 9.76,3.42 17.43,9.13 23.16,17.08 5.64,7.97 9.37,18.03 11.27,30.18 1.89,12.16 1.5,22.77 -1.2,31.84 z m 180.58,6.44 c 0,0 -26.88,3.08 -26.88,3.08 0,0 -14.38,-122.16 -14.38,-122.16 0,0 27.61,-3.16 27.61,-3.16 0,0 -3.66,-32.8 -3.66,-32.8 0,0 -104.41,12.95 -104.41,12.95 0,0 4.49,32.69 4.49,32.69 0,0 27.76,-3.7 27.76,-3.7 0,0 15.84,121.97 15.84,121.97 0,0 -26.83,3.58 -26.83,3.58 0,0 4.5,32.7 4.5,32.7 0,0 99.62,-12.36 99.62,-12.36 0,0 -3.66,-32.79 -3.66,-32.79 z m 183.27,-125.24 c -8.53,-12.99 -18.99,-23.05 -32.53,-30.12 -11.18,-5.72 -22.28,-9.01 -34.6,-9.76 -12.28,-0.72 -24.68,-0.54 -38.59,0.64 0,0 -60.57,5.78 -60.57,5.78 0,0 19.28,188.01 19.28,188.01 0,0 58.22,-5.54 58.22,-5.54 12.83,-1.1 24.94,-3.01 36.16,-5.73 11.24,-2.68 21.54,-7.55 30.78,-14.58 11.15,-8.21 20.11,-19.5 26.93,-33.88 6.86,-14.38 9.89,-30.35 8.89,-47.92 -1.04,-18.24 -5.78,-33.88 -13.97,-46.9 z m -39.87,81.5 c -3.38,8.81 -8.74,15.92 -16.17,21.36 -6.22,4.61 -12.95,7.41 -20.15,8.38 -7.23,0.98 -16.13,1.94 -26.7,2.89 0,0 -0.87,0.08 -0.87,0.08 0,0 -10.59,-116.52 -10.59,-116.52 0,0 0.87,-0.08 0.87,-0.08 10.06,-0.91 18.66,-1.49 26.08,-1.78 7.01,-0.24 13.9,1.12 20.98,4.09 9.67,4.2 16.68,10.54 21.57,18.95 4.87,8.41 7.81,18.74 8.72,31 0.91,12.27 -0.36,22.82 -3.74,31.63 z m 221.51,39.54 c 13.65,-12.11 20.87,-29.79 21.61,-53.06 0,0 3.84,-120.56 3.84,-120.56 0,0 -55.34,-0.85 -55.34,-0.85 0,0 2.22,117.98 2.22,117.98 0.26,13.63 -2.22,23.59 -7.29,29.9 -5.03,6.3 -13.08,9.62 -24.1,9.93 -11.33,0.36 -19.63,-2.57 -24.88,-8.81 -5.24,-6.24 -8.11,-15.92 -8.62,-29.03 0,0 -4.54,-117.92 -4.54,-117.92 0,0 -49.28,2.25 -49.28,2.25 0,0 6.35,120.59 6.35,120.59 1.24,23.58 9.01,41.15 23.22,52.77 14.11,11.64 33.72,17 58.78,16.14 25.95,-0.71 44.5,-7.18 58.03,-19.33 z m 158.83,-75.16 c 0,0 69.11,-87.41 69.11,-87.41 0,0 -54.75,-3.96 -54.75,-3.96 0,0 -40.07,53.93 -40.07,53.93 0,0 -33.05,-58.08 -33.05,-58.08 0,0 -57.02,-2.36 -57.02,-2.36 0,0 57.85,97.35 57.85,97.35 0,0 -66.53,91.46 -66.53,91.46 0,0 52.27,2.13 52.27,2.13 0,0 40.56,-57.25 40.56,-57.25 0,0 33.24,61.39 33.24,61.39 0,0 54.54,3.96 54.54,3.96 0,0 -56.15,-101.16 -56.15,-101.16 z m 121.3,56.7 c 0,0 -45.12,-4.07 -45.12,-4.07 0,0 -4.18,49.83 -4.18,49.83 0,0 44.53,4.01 44.53,4.01 0,0 4.77,-49.77 4.77,-49.77 z m 128.86,32.02 c 0,0 -26.85,-3.54 -26.85,-3.54 0,0 15.54,-122.01 15.54,-122.01 0,0 27.9,3.67 27.9,3.67 0,0 4.45,-32.7 4.45,-32.7 0,0 -105.42,-12.66 -105.42,-12.66 0,0 -3.42,32.82 -3.42,32.82 0,0 27.91,3.04 27.91,3.04 0,0 -13.75,122.23 -13.75,122.23 0,0 -26.92,-2.94 -26.92,-2.94 0,0 -3.42,32.83 -3.42,32.83 0,0 99.53,11.96 99.53,11.96 0,0 4.45,-32.7 4.45,-32.7 z m 205.16,-100.59 c -13.6,-20.73 -35.42,-33.97 -65.22,-39.45 -29.7,-5.12 -54.42,-0.19 -74.06,14.64 -19.16,14.99 -31.04,37.55 -35.34,67.64 -4.27,29.84 0.4,54.71 13.78,74.64 13.17,20 33.51,32.28 61.14,37.04 27.45,5.05 50.71,0.69 70.05,-13.23 19.62,-13.71 32.89,-35.4 39.61,-65.23 6.71,-29.81 3.47,-55.19 -9.96,-76.05 z m -48.6,92.9 c -3.58,6.73 -7.86,12.41 -12.86,17.02 -4.69,4.26 -9.79,7.09 -15.35,8.5 -5.54,1.42 -11.02,1.64 -16.46,0.66 -5.36,-0.94 -10.38,-2.95 -15.03,-6.02 -4.67,-3.07 -8.55,-7.5 -11.67,-13.31 -3.09,-5.73 -5.11,-12.53 -6.14,-20.43 -1.06,-7.89 -0.68,-17.54 1.16,-28.93 1.78,-11.07 4.54,-20.39 8.31,-27.97 3.74,-7.59 7.89,-13.48 12.73,-17.64 5.35,-4.49 10.57,-7.35 15.85,-8.54 5.08,-1.22 10.79,-1.27 16.67,-0.23 5.69,1.02 10.92,3.11 15.71,6.27 4.9,3.18 8.83,7.67 12.11,13.52 2.98,5.72 4.87,12.67 5.79,20.88 0.84,8.19 0.13,17.78 -2.04,28.77 -2.28,11.57 -5.19,20.73 -8.78,27.45 z"
     id="Didux.IO"
     inkscape:connector-curvature="0"
     style="fill:#ff9000;stroke:#000000;stroke-width:0;fill-opacity:1;stroke-miterlimit:4;stroke-dasharray:none" />
  <path
     d="m 1418.647,1208.9832 c 0,0 -1,398 -1,398 -0.01,6.2 0.31,12.11 -2,18 -6.97,17.72 -42.57,47.29 -58,60.16 -33.59,42.89 -353.5,219.16 -382.00001,222.34 -169.92,-71.37 -302.73,-148.34 -358,-197.25 -18.86,-14.2 -33.28,-26.53 -50,-43.25 -21.12,-21.12 -29.95,-24.9 -30,-56 0,0 -1,-403 -1,-403 208.78,-35.47 683.50001,-34 882.00001,1 z"
     id="inner shield"
     inkscape:connector-curvature="0"
     style="fill:#ff9000;fill-opacity:1;stroke:#000000;stroke-width:0;stroke-miterlimit:4;stroke-dasharray:none;fill-rule:nonzero" />
  <path
     d="m 589.94254,1009.873 c 6.03,-497.93995 767.72006,-490.93995 771.00006,-5.5 0,0 0.5,140.5 0.5,140.5 0,0 -160.5,-12.5 -160.5,-12.5 0,-70.51 -0.5,-90.5 -1.5,-127 -1.66,-272.43995 -449.27006,-286.01995 -447.50006,3.5 0,0 4,123.5 2,122.5 0.5,1 -164,15.5 -164,14.5 0,0 0,-136 0,-136 z"
     id="lock"
     inkscape:connector-curvature="0"
     style="fill:#e6e6e6;fill-opacity:1;stroke:#000000;stroke-width:0;stroke-miterlimit:4;stroke-dasharray:none" />
  <path
     d="m 297.64699,526.98315 c 441.50003,-161.5 1005.50001,-140 1360.00011,2 2.79,4.71 -0.5,602.00005 -0.5,602.00005 0,0 -159,-20.5 -159,-20.5 0.5,0.5 1.48,-466.94005 -1.5,-467.00005 -214,-70.5 -518.00008,-68.5 -518.50008,-68.5 0,0 -292,0.5 -519.00003,72 -4.5,3.5 -2,464.00005 -2,464.00005 0,0 -159.5,20.5 -159.5,20.5 0,0 -4.11,-599.35005 0,-604.50005 z M 1658.6471,1243.4832 c 0.5,0.5 -1,403 -1,403 -0.11,71.66 -48.46,129.22 -95.66,177.82 -51.59,53.13 -113.97,96.73 -176.34,136.29 -62.12,39.4 -126.21,75.49 -192,108.38 0,0 -40,20.13 -40,20.13 0,0 -124,58.22 -124,58.22 -12.52,5.36 -39.65008,19 -52.00008,19 -12.58,0 -43.3,-14.09 -56,-19.54 0,0 -116,-51.45 -116,-51.45 0,0 -122,-60.23 -122,-60.23 -100.54,-54.38 -183.54003,-106.23 -270.00003,-182.05 -54.86,-48.11 -115.88,-123.65 -116,-200.57 0,0 -1.5,-408.5 -1,-409.5 0.15,1.03 161.5,-25 161.5,-25 0,0 -0.5,406.5 -0.5,406.5 0.02,10.72 0.64,19.72 4.2,30 10.99,31.76 54.12,72.98 79.8,94.49 77.94003,67.79 226.60003,165.99 436.50003,243.01 -6.56,6.26 289.16998,-128.28 415.49998,-235.9 25.95,-20.79 50.04,-42.72 72.1,-67.6 18.5,-20.86 31.86,-37.17 31.9,-66 0,0 -0.5,-404 -0.5,-404 0,0 162,25.5 161.5001,25 z"
     id="Shield"
     inkscape:connector-curvature="0"
     style="fill:#ff9000;fill-opacity:1;stroke:#ff9000;stroke-width:0;stroke-miterlimit:4;stroke-dasharray:none;fill-rule:nonzero;stroke-opacity:1" />
  <path
     id="D"
     d="m 937.45749,1236.3207 15,1 h 5 l 23.00005,1.83 c 38.07006,3.69 66.24006,7.49 101.00006,25.43 19.35,9.98 40.74,25.23 55.96,40.75 42.55,43.41 62.03,96.3 66.13,155.99 l 0.91,12 v 22 l -1.84,21 c -7.55,70.62 -44.98,136.56 -105.16,175.31 -39.37,25.35 -73.51,31.45 -119.00006,35.86 l -27.00005,1.83 -16,1 h -173 v -494 z m -13,401 c 34.75455,-1.7832 68.31112,-5.212 92.00011,-20.52 49.83,-33.06 60.09,-85.89 60,-141.48 l -0.91,-12 c -2.45,-35.06 -14.14,-74.48 -41.1,-98.71 -15.49,-13.93 -33.7801,-24.75 -53.99006,-30.14 -20.62395,-4.5047 -36.65806,-3.9534 -57.00005,-5.15 h -37 v 308 z"
     inkscape:connector-curvature="0"
     style="fill:#ffffff;fill-opacity:1;stroke:#000000;stroke-width:0;stroke-miterlimit:4;stroke-dasharray:none"
     sodipodi:nodetypes="ccccccccccccccccccccccccccc" />
  <metadata
     id="metadata2886">
    <rdf:RDF>
      <cc:Work
         rdf:about="">
        <dc:title></dc:title>
      </cc:Work>
    </rdf:RDF>
  </metadata>
</svg>
