<svg id="svg" version="1.1" xmlns="http://www.w3.org/2000/svg" xmlns:xlink="http://www.w3.org/1999/xlink" width="400" height="400" viewBox="0, 0, 400,400"><g id="svgg"><path id="path0" d="M133.800 62.400 C 133.660 62.627,133.996 62.800,134.576 62.800 C 135.139 62.800,135.600 62.620,135.600 62.400 C 135.600 62.180,135.251 62.000,134.824 62.000 C 134.397 62.000,133.936 62.180,133.800 62.400 M191.200 67.800 C 191.200 68.301,190.380 68.400,186.224 68.400 C 183.337 68.400,181.143 68.568,181.000 68.800 C 180.864 69.020,180.043 69.200,179.176 69.200 C 178.042 69.200,177.600 69.368,177.600 69.800 C 177.600 70.233,177.156 70.400,176.000 70.400 C 175.120 70.400,174.400 70.580,174.400 70.800 C 174.400 71.020,173.764 71.200,172.987 71.200 C 172.101 71.200,171.489 71.423,171.345 71.800 C 171.183 72.220,170.528 72.400,169.157 72.400 C 167.684 72.400,167.200 72.548,167.200 73.000 C 167.200 73.373,166.822 73.600,166.200 73.600 C 165.650 73.600,165.200 73.780,165.200 74.000 C 165.200 74.220,164.750 74.400,164.200 74.400 C 163.578 74.400,163.200 74.627,163.200 75.000 C 163.200 75.414,162.784 75.600,161.858 75.600 C 160.982 75.600,160.143 75.947,159.438 76.600 C 158.844 77.150,158.092 77.600,157.767 77.600 C 157.441 77.600,157.071 77.870,156.945 78.200 C 156.818 78.530,156.284 78.800,155.757 78.800 C 155.231 78.800,154.800 78.980,154.800 79.200 C 154.800 79.420,154.530 79.600,154.200 79.600 C 153.870 79.600,153.600 79.793,153.600 80.029 C 153.600 80.645,152.708 81.448,151.651 81.784 C 151.149 81.943,150.107 82.687,149.335 83.437 C 148.563 84.186,147.671 84.800,147.353 84.800 C 147.035 84.800,146.671 85.070,146.545 85.400 C 146.418 85.730,146.094 86.000,145.825 86.000 C 145.556 86.000,145.093 86.452,144.797 87.005 C 144.408 87.732,144.047 87.942,143.490 87.765 C 142.869 87.568,142.768 87.669,142.965 88.290 C 143.142 88.847,142.932 89.208,142.205 89.597 C 141.652 89.893,141.200 90.387,141.200 90.695 C 141.200 91.078,140.940 91.171,140.374 90.992 C 139.805 90.811,139.576 90.896,139.637 91.265 C 139.777 92.109,139.168 93.200,138.557 93.200 C 138.251 93.200,138.000 93.470,138.000 93.800 C 138.000 94.130,137.840 94.400,137.643 94.400 C 137.447 94.400,137.174 94.850,137.036 95.400 C 136.898 95.950,136.608 96.400,136.392 96.400 C 136.177 96.400,136.000 96.670,136.000 97.000 C 136.000 97.330,135.795 97.600,135.544 97.600 C 134.929 97.600,134.028 98.835,134.013 99.700 C 134.006 100.085,133.730 100.400,133.400 100.400 C 133.070 100.400,132.800 100.670,132.800 101.000 C 132.800 101.330,132.623 101.600,132.408 101.600 C 132.192 101.600,131.902 102.050,131.764 102.600 C 131.626 103.150,131.353 103.600,131.157 103.600 C 130.960 103.600,130.800 104.031,130.800 104.557 C 130.800 105.084,130.530 105.618,130.200 105.745 C 129.870 105.871,129.600 106.431,129.600 106.987 C 129.600 107.544,129.420 108.000,129.200 108.000 C 128.980 108.000,128.800 108.270,128.800 108.600 C 128.800 108.930,128.609 109.200,128.376 109.200 C 128.143 109.200,128.064 109.380,128.200 109.600 C 128.336 109.820,128.257 110.000,128.024 110.000 C 127.791 110.000,127.600 110.720,127.600 111.600 C 127.600 112.756,127.433 113.200,127.000 113.200 C 126.627 113.200,126.400 113.578,126.400 114.200 C 126.400 114.750,126.220 115.200,126.000 115.200 C 125.780 115.200,125.594 115.605,125.587 116.100 C 125.580 116.595,125.310 117.349,124.987 117.776 C 124.664 118.204,124.400 118.958,124.400 119.453 C 124.400 119.948,124.220 120.464,124.000 120.600 C 123.780 120.736,123.600 122.367,123.600 124.224 C 123.600 126.958,123.486 127.600,123.000 127.600 C 122.533 127.600,122.400 128.137,122.400 130.029 C 122.400 131.654,122.202 132.656,121.800 133.057 C 121.182 133.675,120.846 169.012,121.443 170.567 C 121.712 171.270,124.400 171.481,124.400 170.800 C 124.400 170.554,126.400 170.400,129.600 170.400 C 133.956 170.400,134.800 170.303,134.800 169.800 C 134.800 169.286,136.000 169.200,143.200 169.200 C 148.533 169.200,151.600 169.054,151.600 168.800 C 151.600 168.580,152.422 168.400,153.426 168.400 C 156.739 168.400,156.800 168.293,156.800 162.435 C 156.800 158.357,156.676 157.195,156.200 156.800 C 155.696 156.381,155.600 154.686,155.600 146.151 C 155.600 137.395,155.682 136.000,156.200 136.000 C 156.654 136.000,156.800 135.508,156.800 133.971 C 156.800 132.702,157.024 131.718,157.400 131.343 C 157.730 131.013,158.000 130.216,158.000 129.571 C 158.000 128.927,158.180 128.400,158.400 128.400 C 158.620 128.400,158.800 127.500,158.800 126.400 C 158.800 124.889,158.947 124.400,159.400 124.400 C 159.773 124.400,160.000 124.022,160.000 123.400 C 160.000 122.850,160.180 122.400,160.400 122.400 C 160.620 122.400,160.800 122.130,160.800 121.800 C 160.800 121.470,161.070 121.200,161.400 121.200 C 161.773 121.200,162.000 120.822,162.000 120.200 C 162.000 119.650,162.177 119.200,162.392 119.200 C 162.608 119.200,162.898 118.750,163.036 118.200 C 163.174 117.650,163.447 117.200,163.643 117.200 C 163.840 117.200,164.000 116.930,164.000 116.600 C 164.000 116.270,164.193 116.000,164.429 116.000 C 164.982 116.000,166.000 114.982,166.000 114.429 C 166.000 114.193,166.194 114.000,166.431 114.000 C 166.991 114.000,169.200 111.791,169.200 111.231 C 169.200 110.994,169.470 110.800,169.800 110.800 C 170.130 110.800,170.400 110.620,170.400 110.400 C 170.400 110.180,170.766 110.000,171.213 110.000 C 171.659 110.000,172.120 109.753,172.236 109.450 C 172.352 109.148,173.066 108.567,173.823 108.159 C 174.581 107.752,175.200 107.279,175.200 107.109 C 175.200 106.939,175.656 106.800,176.213 106.800 C 176.769 106.800,177.329 106.530,177.455 106.200 C 177.582 105.870,177.936 105.600,178.243 105.600 C 178.549 105.600,178.800 105.420,178.800 105.200 C 178.800 104.980,179.228 104.800,179.751 104.800 C 180.274 104.800,180.926 104.530,181.200 104.200 C 181.518 103.817,182.403 103.600,183.649 103.600 C 184.722 103.600,185.600 103.420,185.600 103.200 C 185.600 102.980,186.208 102.800,186.951 102.800 C 187.694 102.800,188.526 102.530,188.800 102.200 C 189.155 101.773,190.093 101.600,192.062 101.600 C 194.149 101.600,194.881 101.453,195.055 101.000 C 195.237 100.526,196.072 100.400,199.043 100.400 C 202.116 100.400,202.800 100.509,202.800 101.000 C 202.800 101.477,203.381 101.600,205.629 101.600 C 207.610 101.600,208.637 101.780,209.057 102.200 C 209.387 102.530,210.174 102.800,210.805 102.800 C 211.436 102.800,212.064 102.980,212.200 103.200 C 212.336 103.420,213.517 103.600,214.824 103.600 C 216.669 103.600,217.200 103.734,217.200 104.200 C 217.200 104.573,217.578 104.800,218.200 104.800 C 218.750 104.800,219.200 104.980,219.200 105.200 C 219.200 105.420,219.451 105.600,219.757 105.600 C 220.064 105.600,220.418 105.870,220.545 106.200 C 220.689 106.577,221.301 106.800,222.187 106.800 C 223.176 106.800,223.600 106.980,223.600 107.400 C 223.600 107.730,223.870 108.000,224.200 108.000 C 224.530 108.000,224.800 108.180,224.800 108.400 C 224.800 108.620,225.135 108.800,225.544 108.800 C 225.953 108.800,226.626 109.250,227.039 109.800 C 227.453 110.351,228.196 110.800,228.695 110.800 C 229.233 110.800,229.600 111.043,229.600 111.400 C 229.600 111.730,229.870 112.000,230.200 112.000 C 230.530 112.000,230.800 112.193,230.800 112.429 C 230.800 112.982,231.818 114.000,232.371 114.000 C 232.607 114.000,232.800 114.270,232.800 114.600 C 232.800 114.930,233.070 115.200,233.400 115.200 C 233.730 115.200,234.000 115.520,234.000 115.911 C 234.000 116.302,234.714 117.337,235.587 118.211 C 236.460 119.085,237.180 120.115,237.187 120.500 C 237.194 120.885,237.380 121.200,237.600 121.200 C 237.820 121.200,238.000 121.650,238.000 122.200 C 238.000 122.822,238.227 123.200,238.600 123.200 C 238.930 123.200,239.200 123.470,239.200 123.800 C 239.200 124.130,239.380 124.400,239.600 124.400 C 239.820 124.400,240.000 124.850,240.000 125.400 C 240.000 126.022,240.227 126.400,240.600 126.400 C 241.067 126.400,241.200 126.935,241.200 128.813 C 241.200 130.374,241.376 131.293,241.700 131.417 C 241.985 131.526,242.231 132.408,242.272 133.463 C 242.311 134.483,242.519 135.426,242.734 135.559 C 242.973 135.707,243.178 141.658,243.262 150.881 C 243.366 162.258,243.523 166.083,243.900 166.460 C 244.175 166.735,244.400 167.284,244.400 167.680 C 244.400 168.253,244.726 168.400,246.000 168.400 C 246.880 168.400,247.600 168.580,247.600 168.800 C 247.600 169.056,251.085 169.200,257.256 169.200 C 265.189 169.200,266.991 169.303,267.356 169.776 C 267.691 170.210,269.033 170.383,272.800 170.476 L 277.800 170.600 277.693 151.400 C 277.602 134.980,277.501 132.136,276.993 131.756 C 276.534 131.412,276.400 130.352,276.400 127.056 C 276.400 124.485,276.242 122.800,276.000 122.800 C 275.780 122.800,275.600 122.074,275.600 121.187 C 275.600 120.123,275.396 119.497,275.000 119.345 C 274.662 119.215,274.400 118.619,274.400 117.981 C 274.400 117.357,274.220 116.736,274.000 116.600 C 273.780 116.464,273.600 115.935,273.600 115.425 C 273.600 114.915,273.330 114.274,273.000 114.000 C 272.670 113.726,272.400 112.916,272.400 112.200 C 272.400 111.484,272.130 110.674,271.800 110.400 C 271.470 110.126,271.200 109.654,271.200 109.351 C 271.200 109.048,271.020 108.800,270.800 108.800 C 270.580 108.800,270.400 108.350,270.400 107.800 C 270.400 107.178,270.173 106.800,269.800 106.800 C 269.381 106.800,269.200 106.378,269.200 105.400 C 269.200 104.630,269.020 104.000,268.800 104.000 C 268.580 104.000,268.400 103.730,268.400 103.400 C 268.400 103.070,268.150 102.800,267.843 102.800 C 267.537 102.800,267.174 102.350,267.036 101.800 C 266.898 101.250,266.608 100.800,266.392 100.800 C 266.177 100.800,266.000 100.566,266.000 100.280 C 266.000 99.361,265.016 97.606,264.500 97.603 C 264.225 97.601,264.000 97.396,264.000 97.146 C 264.000 96.896,263.585 96.307,263.078 95.837 C 262.571 95.367,262.030 94.654,261.876 94.253 C 261.722 93.852,261.243 93.432,260.811 93.319 C 260.380 93.206,259.918 92.773,259.786 92.357 C 259.654 91.941,259.378 91.600,259.173 91.600 C 258.968 91.600,258.800 91.240,258.800 90.800 C 258.800 90.360,258.618 90.000,258.395 90.000 C 258.172 90.000,257.094 89.100,256.000 88.000 C 254.906 86.900,253.730 86.000,253.388 86.000 C 253.016 86.000,252.812 85.717,252.882 85.300 C 252.963 84.823,252.777 84.637,252.300 84.718 C 251.915 84.782,251.600 84.647,251.600 84.418 C 251.600 84.188,251.330 84.000,251.000 84.000 C 250.670 84.000,250.400 83.730,250.400 83.400 C 250.400 83.027,250.022 82.800,249.400 82.800 C 248.778 82.800,248.400 82.573,248.400 82.200 C 248.400 81.870,248.173 81.600,247.895 81.600 C 247.617 81.600,247.052 81.150,246.639 80.600 C 246.226 80.050,245.553 79.600,245.144 79.600 C 244.735 79.600,244.400 79.420,244.400 79.200 C 244.400 78.980,243.860 78.800,243.200 78.800 C 242.540 78.800,242.000 78.607,242.000 78.371 C 242.000 77.753,240.955 76.800,240.278 76.800 C 239.959 76.800,239.474 76.530,239.200 76.200 C 238.926 75.870,238.113 75.600,237.394 75.600 C 236.600 75.600,235.995 75.364,235.855 75.000 C 235.729 74.670,235.259 74.400,234.813 74.400 C 234.366 74.400,234.000 74.220,234.000 74.000 C 234.000 73.780,233.460 73.600,232.800 73.600 C 232.000 73.600,231.600 73.400,231.600 73.000 C 231.600 72.579,231.175 72.400,230.171 72.400 C 229.386 72.400,228.473 72.130,228.143 71.800 C 227.813 71.470,227.106 71.200,226.571 71.200 C 226.037 71.200,225.600 71.020,225.600 70.800 C 225.600 70.580,224.899 70.400,224.043 70.400 C 223.028 70.400,222.405 70.191,222.255 69.800 C 222.104 69.406,221.480 69.200,220.436 69.200 C 219.562 69.200,218.736 69.020,218.600 68.800 C 218.458 68.569,216.329 68.400,213.576 68.400 C 209.597 68.400,208.800 68.300,208.800 67.800 C 208.800 67.285,207.556 67.200,200.000 67.200 C 192.444 67.200,191.200 67.285,191.200 67.800 M62.131 122.200 C 62.133 123.740,62.205 124.321,62.292 123.491 C 62.379 122.661,62.377 121.401,62.289 120.691 C 62.200 119.981,62.129 120.660,62.131 122.200 M62.151 132.800 C 62.151 135.330,62.216 136.365,62.296 135.100 C 62.375 133.835,62.375 131.765,62.296 130.500 C 62.216 129.235,62.151 130.270,62.151 132.800 M62.093 140.800 C 62.093 141.570,62.175 141.885,62.276 141.500 C 62.376 141.115,62.376 140.485,62.276 140.100 C 62.175 139.715,62.093 140.030,62.093 140.800 M110.093 183.600 C 110.093 184.370,110.175 184.685,110.276 184.300 C 110.376 183.915,110.376 183.285,110.276 182.900 C 110.175 182.515,110.093 182.830,110.093 183.600 M110.006 198.876 C 110.003 201.569,110.170 203.658,110.400 203.800 C 110.927 204.126,110.927 195.616,110.400 194.800 C 110.137 194.394,110.010 195.709,110.006 198.876 M62.169 210.600 C 62.170 215.220,62.228 217.055,62.299 214.678 C 62.370 212.301,62.369 208.521,62.298 206.278 C 62.227 204.035,62.169 205.980,62.169 210.600 M62.120 225.200 C 62.120 226.410,62.195 226.905,62.287 226.300 C 62.378 225.695,62.378 224.705,62.287 224.100 C 62.195 223.495,62.120 223.990,62.120 225.200 " stroke="none" fill="#636363" fill-rule="evenodd"></path><path id="path1" d="M157.298 242.100 L 157.400 291.400 175.800 291.522 C 194.627 291.647,202.606 291.404,200.886 290.758 L 199.971 290.415 200.086 281.203 C 200.186 273.127,200.126 272.026,199.600 272.277 C 198.714 272.700,183.118 273.078,182.297 272.696 C 181.635 272.388,181.601 270.635,181.697 242.085 L 181.800 211.800 189.600 211.800 C 193.890 211.800,198.030 211.935,198.800 212.100 L 200.200 212.399 200.111 202.900 L 200.022 193.400 198.111 193.135 C 197.060 192.989,187.424 192.854,176.698 192.835 L 157.197 192.800 157.298 242.100 M202.105 193.887 C 202.714 193.979,203.614 193.977,204.105 193.882 C 204.597 193.787,204.100 193.711,203.000 193.714 C 201.900 193.717,201.497 193.795,202.105 193.887 M223.600 200.146 C 223.600 200.256,224.140 200.730,224.800 201.200 C 225.460 201.670,226.000 201.964,226.000 201.854 C 226.000 201.744,225.460 201.270,224.800 200.800 C 224.140 200.330,223.600 200.036,223.600 200.146 M231.183 206.100 C 232.164 207.145,233.019 208.000,233.083 208.000 C 233.384 208.000,233.066 207.641,231.300 205.983 L 229.400 204.200 231.183 206.100 M237.200 213.600 C 237.670 214.260,238.144 214.800,238.254 214.800 C 238.364 214.800,238.070 214.260,237.600 213.600 C 237.130 212.940,236.656 212.400,236.546 212.400 C 236.436 212.400,236.730 212.940,237.200 213.600 M211.583 218.900 C 212.564 219.945,213.419 220.800,213.483 220.800 C 213.784 220.800,213.466 220.441,211.700 218.783 L 209.800 217.000 211.583 218.900 M219.750 242.200 C 219.751 244.620,219.816 245.558,219.896 244.285 C 219.976 243.012,219.975 241.032,219.894 239.885 C 219.814 238.738,219.749 239.780,219.750 242.200 M202.400 271.400 C 201.850 271.714,201.580 271.972,201.800 271.972 C 202.020 271.972,202.650 271.714,203.200 271.400 C 203.750 271.086,204.020 270.828,203.800 270.828 C 203.580 270.828,202.950 271.086,202.400 271.400 M231.775 277.300 L 230.600 278.600 231.900 277.425 C 232.615 276.779,233.200 276.194,233.200 276.125 C 233.200 275.816,232.870 276.088,231.775 277.300 " stroke="none" fill="#cccbcb" fill-rule="evenodd"></path><path id="path2" d="M180.800 22.787 C 180.800 23.001,181.052 23.078,181.360 22.960 C 181.667 22.842,182.038 22.938,182.183 23.173 C 182.367 23.471,179.804 23.606,173.724 23.620 C 163.958 23.643,160.698 23.769,160.085 24.147 C 159.856 24.289,159.586 24.179,159.486 23.902 C 159.344 23.508,159.130 23.503,158.493 23.878 C 158.046 24.141,156.178 24.393,154.341 24.437 C 152.151 24.490,150.864 24.697,150.601 25.039 C 150.341 25.378,149.078 25.588,147.000 25.639 C 145.240 25.682,143.704 25.864,143.587 26.042 C 143.469 26.221,142.059 26.400,140.452 26.440 C 138.415 26.492,137.468 26.678,137.323 27.057 C 137.166 27.466,136.094 27.600,132.986 27.600 C 129.849 27.600,128.713 27.744,128.257 28.200 C 127.844 28.613,126.829 28.800,125.005 28.800 C 123.339 28.800,122.445 28.949,122.600 29.200 C 122.752 29.447,122.067 29.600,120.811 29.600 C 119.370 29.600,118.708 29.775,118.545 30.200 C 118.366 30.666,117.581 30.800,115.037 30.800 C 113.235 30.800,111.577 30.983,111.354 31.206 C 111.130 31.430,110.168 31.690,109.215 31.785 C 108.262 31.880,107.293 32.147,107.061 32.379 C 106.830 32.610,106.055 32.800,105.340 32.800 C 104.625 32.800,103.896 33.057,103.720 33.370 C 103.496 33.770,102.504 33.968,100.400 34.034 C 98.750 34.086,97.130 34.268,96.800 34.440 C 96.470 34.611,95.698 34.858,95.084 34.988 C 94.470 35.117,94.047 35.353,94.145 35.512 C 94.243 35.670,93.490 35.855,92.472 35.922 C 91.453 35.989,90.510 36.223,90.375 36.441 C 90.161 36.786,89.344 36.974,87.276 37.154 C 86.983 37.180,86.880 37.405,87.042 37.668 C 87.230 37.972,87.122 38.056,86.734 37.907 C 85.931 37.599,82.234 38.311,82.067 38.806 C 81.993 39.023,81.509 39.200,80.990 39.200 C 80.472 39.200,79.936 39.380,79.800 39.600 C 79.664 39.820,78.998 40.000,78.320 40.000 C 77.643 40.000,76.888 40.263,76.644 40.584 C 76.386 40.924,75.404 41.207,74.300 41.259 C 73.000 41.321,72.400 41.523,72.400 41.898 C 72.400 42.200,72.245 42.351,72.055 42.234 C 71.606 41.957,67.588 43.372,67.244 43.928 C 67.099 44.163,66.164 44.411,65.168 44.478 C 63.709 44.575,63.344 44.750,63.297 45.373 C 63.265 45.798,62.963 46.301,62.626 46.489 C 61.766 46.971,61.794 148.017,62.655 150.600 C 63.027 151.715,63.190 154.596,63.194 160.100 C 63.200 167.339,63.259 168.004,63.900 168.042 C 64.285 168.066,65.209 168.118,65.954 168.160 C 66.699 168.201,67.541 168.002,67.826 167.717 C 68.150 167.392,69.388 167.200,71.152 167.200 C 73.194 167.200,74.049 167.041,74.286 166.618 C 74.545 166.155,75.782 166.024,80.307 165.978 C 83.439 165.947,86.102 165.759,86.224 165.561 C 86.347 165.362,87.774 165.200,89.395 165.200 C 91.482 165.200,92.518 165.025,92.943 164.600 C 93.273 164.270,94.157 164.000,94.907 164.000 C 97.301 164.000,97.200 166.087,97.200 116.753 C 97.200 67.262,97.041 70.400,99.543 70.400 C 100.203 70.400,101.013 70.130,101.343 69.800 C 101.688 69.455,102.665 69.200,103.643 69.200 C 105.437 69.200,107.452 68.690,109.332 67.760 C 109.955 67.452,110.887 67.200,111.404 67.200 C 111.920 67.200,112.613 66.930,112.943 66.600 C 113.353 66.190,114.366 66.000,116.148 66.000 C 117.581 66.000,118.864 65.820,119.000 65.600 C 119.136 65.380,120.012 65.200,120.947 65.200 C 121.882 65.200,122.996 64.936,123.424 64.613 C 123.870 64.275,125.091 64.020,126.300 64.013 C 127.455 64.006,128.400 63.820,128.400 63.600 C 128.400 63.380,129.312 63.200,130.426 63.200 C 131.541 63.200,132.846 62.982,133.326 62.715 C 133.807 62.448,135.640 62.185,137.400 62.130 C 141.357 62.007,143.295 61.677,142.988 61.180 C 142.847 60.952,144.014 60.800,145.896 60.800 C 147.625 60.800,149.211 60.630,149.420 60.422 C 149.629 60.214,151.285 60.009,153.100 59.966 C 155.576 59.907,156.400 59.752,156.400 59.344 C 156.400 58.904,157.897 58.800,164.226 58.800 C 168.531 58.800,172.356 58.640,172.726 58.445 C 173.097 58.250,176.361 58.007,179.980 57.905 C 184.432 57.779,186.610 57.571,186.713 57.260 C 186.821 56.938,188.893 56.800,193.633 56.800 L 200.400 56.800 200.400 39.600 L 200.400 22.400 190.600 22.400 C 184.545 22.400,180.800 22.548,180.800 22.787 M218.606 22.809 C 218.743 23.031,219.010 23.117,219.200 23.000 C 219.390 22.883,219.658 22.970,219.796 23.193 C 219.934 23.417,220.329 23.600,220.673 23.600 C 221.135 23.600,221.187 23.467,220.874 23.089 C 220.367 22.478,218.239 22.216,218.606 22.809 M240.800 24.000 C 242.322 24.487,243.954 24.487,243.200 24.000 C 242.870 23.787,241.970 23.627,241.200 23.646 C 239.917 23.677,239.884 23.707,240.800 24.000 M248.857 24.590 C 248.962 24.696,249.398 24.836,249.824 24.903 C 250.251 24.969,250.848 25.178,251.152 25.367 C 251.536 25.607,251.648 25.544,251.521 25.163 C 251.421 24.862,250.737 24.567,250.002 24.507 C 249.267 24.448,248.752 24.485,248.857 24.590 M63.200 47.680 C 63.200 48.326,63.082 48.442,62.755 48.115 C 62.510 47.870,62.431 47.474,62.578 47.235 C 62.992 46.565,63.200 46.714,63.200 47.680 M337.505 51.723 C 337.720 55.205,337.931 55.479,337.968 52.324 C 337.986 50.852,337.854 49.557,337.676 49.447 C 337.498 49.337,337.421 50.361,337.505 51.723 M268.400 62.400 C 268.400 62.620,268.850 62.800,269.400 62.800 C 269.950 62.800,270.400 62.620,270.400 62.400 C 270.400 62.180,269.950 62.000,269.400 62.000 C 268.850 62.000,268.400 62.180,268.400 62.400 M337.689 110.241 C 337.640 113.344,337.516 117.034,337.413 118.441 L 337.226 121.000 337.623 118.808 C 337.841 117.603,337.965 113.913,337.899 110.608 L 337.778 104.600 337.689 110.241 M63.200 146.224 C 63.200 146.804,63.027 147.140,62.800 147.000 C 62.580 146.864,62.400 146.403,62.400 145.976 C 62.400 145.549,62.580 145.200,62.800 145.200 C 63.020 145.200,63.200 145.661,63.200 146.224 M168.571 175.989 C 168.354 176.206,164.547 176.445,159.979 176.528 C 154.831 176.622,151.456 176.849,150.915 177.139 C 150.373 177.429,147.813 177.600,144.026 177.600 C 138.936 177.600,138.000 177.693,138.000 178.200 C 138.000 178.714,126.921 179.240,124.658 178.833 C 124.470 178.800,124.065 178.980,123.758 179.235 C 123.327 179.593,123.199 179.573,123.194 179.149 C 123.190 178.818,123.071 178.759,122.894 179.000 C 122.526 179.501,122.330 179.534,119.089 179.639 C 117.302 179.697,116.370 179.900,116.231 180.262 C 116.088 180.637,115.227 180.800,113.389 180.800 C 111.939 180.800,110.852 180.961,110.974 181.158 C 111.096 181.355,110.970 181.603,110.694 181.709 C 110.154 181.916,110.109 190.080,110.599 199.300 C 110.769 202.502,110.713 204.000,110.424 204.000 C 109.894 204.000,109.868 221.361,110.394 224.000 C 110.591 224.990,110.775 235.280,110.803 246.867 C 110.846 264.758,110.940 267.968,111.427 268.155 C 111.742 268.276,112.000 268.678,112.000 269.049 C 112.000 269.420,112.720 270.409,113.600 271.246 C 114.480 272.083,115.200 272.878,115.200 273.013 C 115.200 273.329,116.269 274.400,116.585 274.400 C 116.719 274.400,117.953 275.570,119.327 277.000 C 120.929 278.666,122.145 279.600,122.714 279.600 C 123.201 279.600,123.600 279.793,123.600 280.029 C 123.600 280.582,124.618 281.600,125.171 281.600 C 125.407 281.600,125.600 281.870,125.600 282.200 C 125.600 282.530,125.840 282.800,126.132 282.800 C 126.425 282.800,126.906 283.250,127.200 283.800 C 127.494 284.350,127.980 284.800,128.280 284.800 C 128.580 284.800,128.929 285.070,129.055 285.400 C 129.182 285.730,129.491 286.000,129.743 286.000 C 129.994 286.001,130.723 286.451,131.362 287.000 C 132.001 287.550,132.687 288.000,132.886 288.000 C 133.085 288.000,133.119 288.208,132.962 288.462 C 132.800 288.723,132.851 288.816,133.078 288.676 C 133.298 288.539,133.859 288.781,134.323 289.214 C 134.787 289.646,135.425 290.000,135.740 290.000 C 136.056 290.000,136.418 290.270,136.545 290.600 C 136.671 290.930,137.051 291.200,137.387 291.200 C 137.724 291.200,138.000 291.380,138.000 291.600 C 138.000 291.820,138.270 292.000,138.600 292.000 C 138.930 292.000,139.200 292.270,139.200 292.600 C 139.200 292.946,139.562 293.200,140.054 293.200 C 140.524 293.200,141.291 293.605,141.759 294.100 C 142.228 294.595,142.968 295.062,143.405 295.138 C 143.842 295.214,144.344 295.529,144.520 295.838 C 144.696 296.147,145.191 296.400,145.620 296.400 C 146.049 296.400,146.400 296.580,146.400 296.800 C 146.400 297.020,146.850 297.200,147.400 297.200 C 148.022 297.200,148.400 297.427,148.400 297.800 C 148.400 298.130,148.670 298.400,149.000 298.400 C 149.330 298.400,149.600 298.670,149.600 299.000 C 149.600 299.330,149.870 299.600,150.200 299.600 C 150.530 299.600,150.803 299.825,150.806 300.100 C 150.810 300.433,150.942 300.400,151.200 300.000 C 151.458 299.600,151.590 299.567,151.594 299.900 C 151.597 300.175,152.050 300.400,152.600 300.400 C 153.222 300.400,153.600 300.627,153.600 301.000 C 153.600 301.330,153.870 301.600,154.200 301.600 C 154.530 301.600,154.800 301.777,154.800 301.992 C 154.800 302.208,155.250 302.498,155.800 302.636 C 156.350 302.774,156.800 303.047,156.800 303.243 C 156.800 303.440,157.231 303.600,157.757 303.600 C 158.284 303.600,158.818 303.870,158.945 304.200 C 159.071 304.530,159.479 304.800,159.850 304.800 C 160.221 304.800,161.114 305.250,161.836 305.800 C 162.557 306.350,163.414 306.800,163.741 306.800 C 164.429 306.800,166.936 308.056,167.133 308.500 C 167.207 308.665,167.522 308.800,167.833 308.800 C 168.145 308.800,168.400 308.960,168.400 309.157 C 168.400 309.353,168.850 309.626,169.400 309.764 C 169.950 309.902,170.400 310.192,170.400 310.408 C 170.400 310.623,171.120 310.800,172.000 310.800 C 173.156 310.800,173.600 310.967,173.600 311.400 C 173.600 311.773,173.978 312.000,174.600 312.000 C 175.222 312.000,175.600 312.227,175.600 312.600 C 175.600 312.930,175.870 313.200,176.200 313.200 C 176.530 313.200,176.800 313.342,176.800 313.515 C 176.800 313.688,177.349 313.872,178.020 313.923 C 178.692 313.974,179.948 314.462,180.813 315.008 C 181.677 315.554,182.748 316.000,183.192 316.000 C 183.644 316.000,184.000 316.265,184.000 316.600 C 184.000 317.000,184.400 317.200,185.200 317.200 C 185.860 317.200,186.400 317.391,186.400 317.624 C 186.400 317.857,186.568 317.944,186.772 317.817 C 186.977 317.691,187.258 317.770,187.396 317.993 C 187.534 318.217,187.997 318.400,188.424 318.400 C 188.851 318.400,189.200 318.580,189.200 318.800 C 189.200 319.020,189.551 319.200,189.979 319.200 C 190.408 319.200,191.251 319.656,191.852 320.213 C 192.453 320.770,193.227 321.199,193.572 321.167 C 195.333 321.002,196.400 321.241,196.400 321.800 C 196.400 322.166,196.773 322.400,197.357 322.400 C 197.884 322.400,198.418 322.670,198.545 323.000 C 198.671 323.330,199.053 323.600,199.392 323.600 C 199.940 323.600,199.997 321.795,199.905 307.570 L 199.800 291.539 178.600 291.470 L 157.400 291.400 157.298 242.072 L 157.197 192.744 178.599 192.872 L 200.000 193.000 200.000 184.528 C 200.000 176.065,200.001 176.055,200.900 175.866 C 201.395 175.762,194.735 175.692,186.100 175.711 C 175.718 175.733,170.400 175.882,170.400 176.152 C 170.400 176.389,170.199 176.359,169.920 176.080 C 169.338 175.498,169.079 175.481,168.571 175.989 M226.100 175.876 C 226.485 175.976,227.115 175.976,227.500 175.876 C 227.885 175.775,227.570 175.693,226.800 175.693 C 226.030 175.693,225.715 175.775,226.100 175.876 M289.503 188.699 C 289.698 201.389,289.834 202.574,289.917 192.300 C 289.963 186.635,289.865 182.000,289.700 181.999 C 289.535 181.999,289.446 185.014,289.503 188.699 M93.553 183.186 C 93.527 183.304,93.527 183.535,93.553 183.700 C 93.579 183.865,92.355 184.000,90.833 184.000 C 89.312 184.000,88.007 184.170,87.933 184.378 C 87.860 184.585,86.675 184.795,85.300 184.843 C 83.525 184.906,82.800 185.086,82.800 185.466 C 82.800 185.879,81.812 186.000,78.449 186.000 C 75.155 186.000,73.982 186.140,73.621 186.575 C 73.290 186.974,72.567 187.101,71.253 186.990 C 70.083 186.892,68.932 187.054,68.235 187.416 C 67.616 187.737,66.229 188.000,65.154 188.000 C 63.684 188.000,63.200 188.149,63.200 188.600 C 63.200 188.930,62.953 189.200,62.652 189.200 C 62.059 189.200,62.053 226.315,62.645 227.273 C 62.825 227.564,62.742 227.612,62.410 227.406 C 61.703 226.969,62.010 240.970,62.723 241.683 C 63.078 242.038,63.200 246.785,63.200 260.280 C 63.200 272.093,63.339 278.400,63.600 278.400 C 63.820 278.400,64.000 278.927,64.000 279.571 C 64.000 280.216,64.261 281.004,64.581 281.324 C 64.900 281.643,65.215 282.736,65.281 283.752 C 65.363 285.023,65.577 285.599,65.967 285.600 C 66.278 285.600,66.413 285.720,66.266 285.868 C 66.119 286.015,66.314 286.496,66.699 286.936 C 67.085 287.377,67.175 287.606,66.900 287.445 C 66.049 286.948,66.349 287.661,67.400 288.635 C 67.950 289.145,68.400 289.920,68.400 290.357 C 68.400 290.795,68.580 291.264,68.800 291.400 C 69.020 291.536,69.200 291.997,69.200 292.424 C 69.200 292.851,69.470 293.200,69.800 293.200 C 70.130 293.200,70.400 293.455,70.400 293.767 C 70.400 294.078,70.590 294.397,70.822 294.474 C 71.054 294.551,71.286 294.901,71.337 295.251 C 71.388 295.601,71.739 296.196,72.115 296.572 C 72.492 296.949,72.800 297.399,72.800 297.573 C 72.800 297.746,73.430 298.556,74.200 299.373 C 74.970 300.189,75.600 300.960,75.600 301.085 C 75.600 301.471,77.967 303.600,78.396 303.600 C 78.761 303.600,78.985 304.479,78.837 305.330 C 78.806 305.511,78.965 305.545,79.190 305.406 C 79.416 305.267,79.600 305.316,79.600 305.515 C 79.600 306.086,81.053 307.613,81.331 307.335 C 81.469 307.198,81.711 307.426,81.870 307.843 C 82.226 308.773,83.595 310.293,83.612 309.775 C 83.619 309.569,83.808 309.715,84.032 310.100 C 84.256 310.485,84.771 310.800,85.177 310.800 C 85.632 310.800,86.011 311.188,86.168 311.816 C 86.309 312.375,86.565 312.745,86.739 312.638 C 86.912 312.531,87.307 312.793,87.615 313.221 C 87.924 313.650,88.407 314.000,88.688 314.000 C 88.970 314.000,89.200 314.231,89.200 314.514 C 89.200 314.796,89.743 315.348,90.407 315.741 C 91.071 316.133,91.510 316.622,91.383 316.827 C 91.178 317.160,92.048 317.391,92.930 317.237 C 93.111 317.206,93.145 317.365,93.006 317.590 C 92.867 317.816,92.928 318.000,93.143 318.000 C 93.357 318.000,94.305 318.720,95.249 319.600 C 96.192 320.480,97.288 321.200,97.682 321.200 C 98.077 321.200,98.400 321.470,98.400 321.800 C 98.400 322.130,98.670 322.400,99.000 322.400 C 99.330 322.400,99.600 322.670,99.600 323.000 C 99.600 323.330,99.881 323.600,100.224 323.600 C 100.567 323.600,100.736 323.780,100.600 324.000 C 100.456 324.233,100.863 324.400,101.576 324.400 C 102.249 324.400,102.800 324.593,102.800 324.829 C 102.800 325.362,103.810 326.400,104.329 326.400 C 104.541 326.400,104.818 326.670,104.945 327.000 C 105.071 327.330,105.454 327.600,105.795 327.600 C 106.135 327.600,107.070 328.275,107.871 329.100 C 108.672 329.925,109.479 330.623,109.664 330.650 C 109.849 330.678,110.281 330.723,110.624 330.750 C 110.967 330.778,111.136 330.980,111.000 331.200 C 110.856 331.433,111.263 331.600,111.976 331.600 C 112.649 331.600,113.200 331.778,113.200 331.995 C 113.200 332.569,114.492 333.990,114.826 333.784 C 114.982 333.688,115.332 333.877,115.604 334.204 C 115.876 334.532,116.352 334.800,116.662 334.800 C 116.971 334.800,117.328 335.069,117.454 335.398 C 117.581 335.726,117.830 335.905,118.010 335.794 C 118.189 335.683,118.607 335.864,118.939 336.196 C 119.271 336.528,119.736 336.800,119.971 336.800 C 120.207 336.800,120.400 337.070,120.400 337.400 C 120.400 337.775,120.779 338.000,121.413 338.000 C 121.969 338.000,122.529 338.270,122.655 338.600 C 122.782 338.930,123.226 339.200,123.643 339.200 C 124.059 339.200,124.400 339.380,124.400 339.600 C 124.400 339.820,124.670 340.000,125.000 340.000 C 125.330 340.000,125.601 340.135,125.603 340.300 C 125.606 340.708,127.923 342.000,128.652 342.000 C 128.974 342.000,129.655 342.450,130.165 343.000 C 131.080 343.988,131.880 344.376,131.400 343.600 C 131.264 343.380,131.343 343.200,131.576 343.200 C 131.809 343.200,132.000 343.470,132.000 343.800 C 132.000 344.130,132.281 344.400,132.624 344.400 C 132.967 344.400,133.136 344.580,133.000 344.800 C 132.856 345.033,133.263 345.200,133.976 345.200 C 134.671 345.200,135.157 345.393,135.100 345.647 C 135.045 345.893,135.287 346.143,135.637 346.202 C 135.988 346.262,137.019 346.781,137.929 347.355 C 138.839 347.930,139.948 348.400,140.392 348.400 C 140.867 348.400,141.200 348.665,141.200 349.043 C 141.200 349.444,141.421 349.601,141.788 349.460 C 142.112 349.336,142.639 349.496,142.960 349.817 C 143.281 350.138,143.716 350.400,143.929 350.400 C 144.141 350.400,144.418 350.670,144.545 351.000 C 144.676 351.343,145.273 351.600,145.938 351.600 C 146.578 351.600,147.324 351.868,147.596 352.196 C 147.868 352.523,148.236 352.702,148.413 352.592 C 148.590 352.482,149.007 352.664,149.339 352.996 C 149.671 353.328,150.316 353.600,150.771 353.600 C 151.227 353.600,151.601 353.825,151.603 354.100 C 151.607 354.753,153.458 355.600,154.880 355.600 C 155.609 355.600,156.000 355.809,156.000 356.200 C 156.000 356.573,156.378 356.800,157.000 356.800 C 157.550 356.800,158.001 357.025,158.003 357.300 C 158.007 357.945,159.851 358.800,161.237 358.800 C 161.830 358.800,162.418 359.070,162.545 359.400 C 162.671 359.730,163.051 360.000,163.387 360.000 C 163.724 360.000,164.000 360.180,164.000 360.400 C 164.000 360.620,164.551 360.800,165.224 360.800 C 165.943 360.800,166.345 360.966,166.198 361.203 C 166.061 361.424,166.276 361.708,166.675 361.832 C 167.074 361.957,167.693 362.213,168.051 362.402 C 168.409 362.591,169.352 362.867,170.147 363.016 C 170.942 363.166,171.494 363.448,171.373 363.644 C 171.252 363.840,171.703 364.000,172.376 364.000 C 173.152 364.000,173.600 364.203,173.600 364.553 C 173.600 365.033,174.283 365.414,175.800 365.781 C 176.020 365.835,176.785 365.906,177.500 365.939 C 178.362 365.979,178.800 366.202,178.800 366.600 C 178.800 366.930,178.993 367.200,179.229 367.200 C 179.464 367.200,179.929 367.472,180.261 367.804 C 180.593 368.136,181.031 368.304,181.235 368.178 C 181.439 368.052,181.714 368.231,181.846 368.575 C 182.018 369.024,182.637 369.200,184.043 369.200 C 185.516 369.200,186.000 369.348,186.000 369.800 C 186.000 370.130,186.255 370.400,186.567 370.400 C 186.878 370.400,187.224 370.625,187.335 370.900 C 187.496 371.298,187.543 371.297,187.568 370.897 C 187.608 370.262,189.200 371.154,189.200 371.811 C 189.200 372.040,189.515 372.250,189.900 372.276 C 190.285 372.301,191.283 372.370,192.118 372.427 C 193.092 372.494,193.450 372.649,193.118 372.859 C 192.833 373.040,192.690 373.204,192.800 373.224 C 194.595 373.545,195.042 373.682,195.371 374.011 C 195.585 374.225,196.444 374.400,197.280 374.400 C 198.125 374.400,198.800 374.597,198.800 374.843 C 198.800 375.086,198.521 375.178,198.179 375.047 C 197.838 374.916,197.651 374.960,197.765 375.143 C 197.879 375.327,198.563 375.485,199.286 375.495 C 200.009 375.504,200.420 375.442,200.200 375.356 C 199.939 375.254,199.839 368.711,199.912 356.532 C 200.030 336.780,200.078 337.287,198.051 337.051 C 197.328 336.966,196.536 336.696,196.289 336.449 C 196.042 336.202,195.415 336.000,194.896 336.000 C 194.362 336.000,194.061 335.825,194.203 335.595 C 194.342 335.370,193.908 335.082,193.227 334.945 C 192.552 334.810,192.000 334.543,192.000 334.350 C 192.000 334.158,191.302 334.000,190.449 334.000 C 189.558 334.000,188.686 333.745,188.400 333.400 C 188.126 333.070,187.493 332.800,186.994 332.800 C 186.494 332.800,185.978 332.519,185.846 332.175 C 185.714 331.831,185.443 331.650,185.245 331.772 C 185.046 331.895,184.781 331.726,184.654 331.398 C 184.499 330.992,183.856 330.800,182.655 330.800 C 181.451 330.800,180.812 330.608,180.655 330.200 C 180.529 329.870,180.059 329.600,179.613 329.600 C 179.166 329.600,178.800 329.420,178.800 329.200 C 178.800 328.980,178.549 328.800,178.243 328.800 C 177.936 328.800,177.582 328.530,177.455 328.200 C 177.296 327.784,176.639 327.598,175.313 327.594 C 173.930 327.589,173.566 327.480,174.000 327.200 C 174.484 326.887,174.423 326.811,173.687 326.806 C 173.186 326.803,172.671 326.530,172.545 326.200 C 172.418 325.870,171.906 325.600,171.406 325.600 C 170.907 325.600,170.274 325.330,170.000 325.000 C 169.726 324.670,169.063 324.400,168.527 324.400 C 167.991 324.400,167.641 324.257,167.749 324.083 C 167.856 323.909,167.405 323.725,166.745 323.675 C 166.061 323.622,165.139 323.144,164.598 322.560 C 163.767 321.664,163.122 321.348,161.876 321.231 C 161.698 321.214,161.664 321.020,161.800 320.800 C 161.949 320.558,161.404 320.400,160.424 320.400 C 159.475 320.400,158.800 320.210,158.800 319.944 C 158.800 319.272,157.532 318.427,156.500 318.413 C 155.972 318.405,155.600 318.152,155.600 317.800 C 155.600 317.434,155.227 317.200,154.643 317.200 C 154.116 317.200,153.578 316.919,153.446 316.575 C 153.314 316.231,153.039 316.052,152.835 316.178 C 152.631 316.304,152.193 316.136,151.861 315.804 C 151.529 315.472,151.064 315.200,150.829 315.200 C 150.593 315.200,150.400 314.968,150.400 314.685 C 150.400 314.402,149.998 314.140,149.506 314.103 C 149.014 314.066,148.549 313.848,148.473 313.618 C 148.396 313.388,147.918 313.200,147.409 313.200 C 146.901 313.200,146.382 312.930,146.255 312.600 C 146.129 312.270,145.741 312.000,145.393 312.000 C 145.046 312.000,144.345 311.550,143.835 311.000 C 143.325 310.450,142.605 310.000,142.235 310.000 C 141.865 310.000,141.145 309.550,140.635 309.000 C 139.663 307.951,138.939 307.645,139.453 308.500 C 139.840 309.143,138.316 307.981,137.880 307.300 C 137.704 307.025,137.291 306.800,136.961 306.800 C 136.631 306.800,135.965 306.382,135.481 305.870 C 134.996 305.359,134.330 304.817,134.000 304.666 C 133.670 304.515,132.860 304.046,132.200 303.625 C 131.540 303.203,130.685 302.845,130.300 302.829 C 129.915 302.813,129.600 302.596,129.600 302.347 C 129.600 301.780,127.658 300.078,126.638 299.751 C 126.218 299.616,125.478 299.077,124.992 298.553 C 124.506 298.029,123.904 297.600,123.654 297.600 C 123.404 297.600,123.200 297.368,123.200 297.085 C 123.200 296.802,122.838 296.543,122.396 296.510 C 121.541 296.445,120.400 295.511,120.400 294.875 C 120.400 294.665,120.022 294.394,119.560 294.274 C 119.084 294.149,118.837 293.864,118.989 293.617 C 119.138 293.377,119.111 293.225,118.930 293.279 C 118.439 293.426,116.370 291.982,114.953 290.502 C 114.267 289.786,113.412 289.200,113.053 289.200 C 112.694 289.200,112.445 288.979,112.500 288.709 C 112.555 288.440,112.206 288.159,111.725 288.085 C 111.183 288.002,110.802 287.617,110.725 287.075 C 110.646 286.521,110.270 286.153,109.700 286.072 C 109.205 286.002,108.800 285.687,108.800 285.372 C 108.800 285.057,108.660 284.800,108.489 284.800 C 108.105 284.800,105.600 282.540,105.600 282.194 C 105.600 281.783,104.491 280.800,104.029 280.800 C 103.793 280.800,103.600 280.459,103.600 280.043 C 103.600 279.626,103.319 279.178,102.975 279.046 C 102.631 278.914,102.441 278.656,102.554 278.474 C 102.783 278.104,101.413 276.800,100.795 276.800 C 100.578 276.800,100.400 276.538,100.400 276.219 C 100.400 275.217,99.496 273.600,98.936 273.600 C 98.608 273.600,98.400 273.138,98.400 272.413 C 98.400 271.521,98.250 271.283,97.800 271.455 C 97.289 271.651,97.200 271.038,97.197 267.343 C 97.196 264.954,97.151 245.000,97.097 223.000 L 97.000 183.000 95.300 182.986 C 94.365 182.978,93.579 183.068,93.553 183.186 M289.500 210.232 C 289.335 210.398,289.200 212.699,289.200 215.347 C 289.200 218.659,289.329 220.031,289.613 219.747 C 289.864 219.496,289.982 217.489,289.913 214.632 C 289.851 212.046,289.665 210.066,289.500 210.232 M181.900 211.833 C 181.377 212.357,181.533 272.311,182.058 272.636 C 182.717 273.043,197.901 272.818,199.043 272.384 L 200.000 272.020 200.000 242.459 C 200.000 215.463,199.943 212.850,199.339 212.349 C 198.610 211.743,182.468 211.265,181.900 211.833 M337.750 227.800 C 337.751 230.220,337.816 231.158,337.896 229.885 C 337.976 228.612,337.975 226.632,337.894 225.485 C 337.814 224.338,337.749 225.380,337.750 227.800 M63.194 234.300 C 63.189 235.674,63.080 236.034,62.800 235.600 C 62.163 234.614,62.347 232.400,63.067 232.400 C 63.140 232.400,63.197 233.255,63.194 234.300 M337.432 235.832 C 337.277 237.731,337.235 239.368,337.337 239.471 C 337.440 239.573,337.653 238.106,337.811 236.211 C 337.968 234.315,338.011 232.677,337.905 232.571 C 337.799 232.465,337.586 233.932,337.432 235.832 " stroke="none" fill="#c15e0f" fill-rule="evenodd"></path><path id="path3" d="M200.207 193.926 C 199.915 194.219,199.948 210.999,200.243 211.767 C 200.376 212.115,200.739 212.400,201.048 212.400 C 203.626 212.400,211.230 217.656,213.938 221.310 C 215.306 223.156,215.906 224.165,217.263 226.905 C 220.514 233.464,220.787 249.762,217.754 256.239 C 217.230 257.360,216.800 258.386,216.800 258.519 C 216.800 259.062,214.088 263.210,212.690 264.804 C 209.862 268.030,204.822 271.231,201.400 271.973 L 200.200 272.233 200.200 281.416 L 200.200 290.600 203.000 290.536 C 221.580 290.110,239.432 274.574,243.837 255.000 C 246.723 242.173,245.404 229.287,240.110 218.600 C 233.761 205.783,221.844 196.783,208.400 194.652 C 203.906 193.939,200.496 193.637,200.207 193.926 " stroke="none" fill="#fcfaf9" fill-rule="evenodd"></path><path id="path4" d="M200.400 39.521 L 200.400 56.665 208.463 56.736 C 212.897 56.774,216.730 56.976,216.981 57.184 C 217.232 57.392,217.789 57.573,218.218 57.586 C 218.648 57.598,221.729 57.682,225.064 57.771 C 228.399 57.860,231.459 58.103,231.864 58.311 C 232.269 58.519,236.019 58.726,240.198 58.771 C 245.773 58.831,247.956 58.992,248.398 59.375 C 248.765 59.693,250.248 59.927,252.200 59.975 C 253.960 60.018,255.460 60.221,255.533 60.426 C 255.607 60.632,256.966 60.800,258.553 60.800 C 260.227 60.800,261.637 60.997,261.909 61.269 C 262.419 61.779,263.155 61.877,267.400 62.004 C 268.940 62.050,270.313 62.268,270.451 62.489 C 270.589 62.709,271.849 62.979,273.251 63.089 C 274.653 63.198,275.860 63.448,275.933 63.644 C 276.007 63.840,276.826 64.000,277.753 64.000 C 278.681 64.000,279.636 64.196,279.875 64.435 C 280.114 64.674,281.185 64.959,282.255 65.067 C 283.325 65.175,284.371 65.429,284.580 65.632 C 284.789 65.834,286.184 66.000,287.680 66.000 C 289.831 66.000,290.400 66.125,290.400 66.600 C 290.400 67.031,290.841 67.200,291.967 67.200 C 292.828 67.200,293.594 67.383,293.669 67.607 C 293.743 67.830,294.415 68.090,295.160 68.185 C 295.906 68.279,296.706 68.546,296.938 68.778 C 297.170 69.010,298.224 69.200,299.280 69.200 C 303.162 69.200,302.800 64.326,302.800 116.626 C 302.800 167.388,302.597 164.000,305.643 164.000 C 306.900 164.000,307.883 164.226,308.257 164.600 C 308.682 165.025,309.718 165.200,311.805 165.200 C 313.426 165.200,314.864 165.380,315.000 165.600 C 315.144 165.833,317.388 166.000,320.375 166.000 C 324.444 166.000,325.605 166.124,326.000 166.600 C 326.365 167.039,327.332 167.200,329.616 167.200 C 331.608 167.200,332.789 167.366,332.887 167.660 C 332.971 167.912,333.841 168.137,334.820 168.160 L 336.600 168.200 336.703 146.237 C 336.760 134.157,336.953 124.077,337.131 123.837 C 338.098 122.534,338.088 48.749,337.121 48.151 C 336.945 48.042,336.800 47.444,336.800 46.822 C 336.800 45.367,335.369 44.400,333.214 44.400 C 332.046 44.400,331.600 44.234,331.600 43.800 C 331.600 43.427,331.222 43.200,330.600 43.200 C 330.050 43.200,329.600 43.064,329.600 42.898 C 329.600 42.463,326.887 41.551,324.900 41.318 C 323.965 41.209,323.200 40.906,323.200 40.645 C 323.200 40.384,322.618 40.126,321.907 40.072 C 321.195 40.017,320.439 39.799,320.227 39.587 C 320.014 39.374,319.445 39.200,318.963 39.200 C 318.480 39.200,317.982 38.930,317.855 38.600 C 317.706 38.211,317.086 38.000,316.093 38.000 C 315.250 38.000,314.318 37.775,314.021 37.500 C 313.631 37.138,313.557 37.133,313.754 37.483 C 313.938 37.809,313.664 37.777,312.913 37.386 C 312.301 37.066,311.406 36.804,310.924 36.802 C 310.442 36.801,309.936 36.620,309.800 36.400 C 309.664 36.180,308.933 36.000,308.176 36.000 C 307.419 36.000,306.800 35.828,306.800 35.618 C 306.800 35.408,306.125 35.128,305.300 34.996 C 304.475 34.864,303.487 34.586,303.105 34.378 C 302.723 34.170,301.238 34.000,299.805 34.000 C 297.756 34.000,297.200 33.872,297.200 33.400 C 297.200 32.988,296.787 32.800,295.880 32.800 C 295.154 32.800,294.382 32.622,294.164 32.404 C 293.520 31.760,290.052 31.104,286.300 30.917 C 283.787 30.792,282.800 30.597,282.800 30.224 C 282.800 29.870,282.131 29.689,280.702 29.657 C 279.548 29.631,278.543 29.428,278.468 29.205 C 278.394 28.982,277.380 28.800,276.216 28.800 C 274.901 28.800,273.924 28.590,273.639 28.247 C 273.310 27.851,272.030 27.675,269.150 27.630 C 266.621 27.590,264.801 27.370,264.260 27.039 C 263.787 26.749,262.272 26.491,260.893 26.466 C 259.514 26.441,258.041 26.236,257.620 26.010 C 257.198 25.785,255.617 25.600,254.106 25.600 C 252.515 25.600,251.160 25.400,250.883 25.123 C 250.597 24.837,248.775 24.594,246.311 24.514 C 244.059 24.441,241.524 24.195,240.677 23.967 C 239.549 23.663,238.987 23.679,238.569 24.025 C 238.162 24.363,238.000 24.370,238.000 24.049 C 238.000 23.802,237.809 23.600,237.576 23.600 C 237.343 23.600,237.264 23.779,237.399 23.999 C 237.560 24.259,237.312 24.271,236.681 24.031 C 236.150 23.829,232.227 23.643,227.963 23.617 C 222.850 23.586,220.073 23.419,219.805 23.127 C 219.518 22.812,219.564 22.776,219.962 23.003 C 220.347 23.223,220.430 23.172,220.226 22.842 C 220.009 22.490,219.787 22.479,219.400 22.800 C 219.052 23.089,218.786 23.101,218.623 22.837 C 218.283 22.288,217.148 22.769,217.432 23.342 C 217.557 23.594,217.417 23.507,217.121 23.148 C 216.485 22.378,208.428 22.230,207.906 22.978 C 207.706 23.266,207.610 23.255,207.606 22.946 C 207.602 22.646,206.380 22.473,204.000 22.435 L 200.400 22.377 200.400 39.521 M181.000 23.200 C 180.864 23.420,181.134 23.600,181.600 23.600 C 182.066 23.600,182.336 23.420,182.200 23.200 C 182.064 22.980,181.794 22.800,181.600 22.800 C 181.406 22.800,181.136 22.980,181.000 23.200 M62.578 47.235 C 62.431 47.474,62.510 47.870,62.755 48.115 C 63.082 48.442,63.200 48.326,63.200 47.680 C 63.200 46.714,62.992 46.565,62.578 47.235 M62.400 145.976 C 62.400 146.403,62.580 146.864,62.800 147.000 C 63.027 147.140,63.200 146.804,63.200 146.224 C 63.200 145.661,63.020 145.200,62.800 145.200 C 62.580 145.200,62.400 145.549,62.400 145.976 M62.406 151.676 C 62.403 152.268,62.580 152.864,62.800 153.000 C 63.311 153.316,63.311 151.990,62.800 151.200 C 62.497 150.731,62.411 150.834,62.406 151.676 M200.900 175.881 L 200.000 176.056 200.000 184.828 L 200.000 193.600 201.852 193.600 C 205.935 193.600,213.375 195.104,216.600 196.582 C 217.260 196.885,218.844 197.592,220.121 198.153 C 231.278 203.063,241.005 215.597,244.058 229.000 C 250.037 255.242,235.770 283.245,213.587 288.805 C 209.862 289.739,208.933 289.946,206.600 290.363 C 205.280 290.599,203.210 290.891,202.000 291.012 L 199.800 291.232 199.909 307.416 C 199.972 316.746,200.171 323.600,200.380 323.600 C 200.580 323.600,201.013 323.330,201.343 323.000 C 201.673 322.670,202.316 322.400,202.771 322.400 C 203.241 322.400,203.600 322.140,203.600 321.800 C 203.600 321.403,203.997 321.200,204.776 321.200 C 205.423 321.200,206.064 321.020,206.200 320.800 C 206.336 320.580,206.878 320.400,207.404 320.400 C 207.930 320.400,208.504 320.165,208.680 319.878 C 208.856 319.592,209.675 319.043,210.500 318.660 C 211.325 318.276,212.000 317.791,212.000 317.581 C 212.000 317.372,212.621 317.200,213.380 317.200 C 214.139 317.200,214.904 316.965,215.080 316.678 C 215.256 316.392,216.075 315.843,216.900 315.460 C 217.725 315.076,218.400 314.591,218.400 314.381 C 218.400 314.172,218.914 314.000,219.542 314.000 C 220.205 314.000,221.135 313.581,221.762 313.000 C 222.356 312.450,223.192 312.000,223.621 312.000 C 224.049 312.000,224.400 311.730,224.400 311.400 C 224.400 311.031,224.775 310.800,225.376 310.800 C 225.913 310.800,226.464 310.620,226.600 310.400 C 226.736 310.180,227.115 310.000,227.443 310.000 C 227.770 310.000,228.455 309.550,228.965 309.000 C 229.475 308.450,230.192 308.000,230.558 308.000 C 230.925 308.000,231.329 307.730,231.455 307.400 C 231.582 307.070,232.122 306.800,232.655 306.800 C 233.189 306.800,233.729 306.530,233.855 306.200 C 233.982 305.870,234.439 305.600,234.871 305.600 C 235.304 305.600,235.908 305.375,236.215 305.100 C 237.629 303.831,238.016 303.600,238.725 303.600 C 239.142 303.600,239.969 303.150,240.562 302.600 C 241.156 302.050,241.908 301.600,242.233 301.600 C 242.559 301.600,242.929 301.330,243.055 301.000 C 243.182 300.670,243.476 300.400,243.708 300.400 C 244.422 300.400,247.200 299.066,247.200 298.723 C 247.200 298.545,247.470 298.400,247.800 298.400 C 248.130 298.400,248.400 298.130,248.400 297.800 C 248.400 297.470,248.610 297.200,248.866 297.200 C 249.612 297.200,252.400 295.877,252.400 295.523 C 252.400 295.345,252.670 295.200,253.000 295.200 C 253.330 295.200,253.600 295.020,253.600 294.800 C 253.600 294.580,253.848 294.400,254.151 294.400 C 254.454 294.400,254.926 294.130,255.200 293.800 C 255.474 293.470,256.042 293.200,256.462 293.200 C 256.881 293.200,257.329 292.930,257.455 292.600 C 257.582 292.270,257.936 292.000,258.243 292.000 C 258.549 292.000,258.800 291.820,258.800 291.600 C 258.800 291.380,259.070 291.200,259.400 291.200 C 259.730 291.200,260.000 290.930,260.000 290.600 C 260.000 290.270,260.345 290.000,260.768 290.000 C 261.635 290.000,263.994 288.758,263.997 288.300 C 263.999 288.135,264.270 288.000,264.600 288.000 C 264.930 288.000,265.200 287.730,265.200 287.400 C 265.200 287.067,265.556 286.800,266.000 286.800 C 266.440 286.800,266.800 286.620,266.800 286.400 C 266.800 286.180,267.076 286.000,267.413 286.000 C 267.749 286.000,268.129 285.730,268.255 285.400 C 268.382 285.070,268.710 284.800,268.984 284.800 C 269.259 284.800,269.954 284.364,270.529 283.831 C 271.104 283.298,271.940 282.746,272.387 282.604 C 272.834 282.462,273.200 282.178,273.200 281.973 C 273.200 281.768,273.388 281.600,273.618 281.600 C 273.848 281.600,275.391 280.258,277.047 278.618 C 278.703 276.977,280.405 275.525,280.829 275.391 C 281.253 275.256,281.600 274.907,281.600 274.616 C 281.600 274.324,281.870 273.982,282.200 273.855 C 282.530 273.729,282.800 273.349,282.800 273.013 C 282.800 272.676,283.115 272.397,283.500 272.393 C 284.293 272.385,285.541 271.129,286.373 269.500 C 286.682 268.895,287.070 268.400,287.235 268.400 C 289.098 268.400,289.164 267.405,289.264 238.052 C 289.316 222.815,289.492 210.267,289.655 210.166 C 289.818 210.065,289.851 203.821,289.728 196.291 C 289.464 180.180,289.645 180.800,285.205 180.800 C 283.606 180.800,282.708 180.626,282.579 180.290 C 282.456 179.968,281.426 179.738,279.772 179.664 C 278.335 179.599,276.764 179.436,276.280 179.301 C 275.796 179.165,272.181 178.986,268.246 178.902 C 262.720 178.783,260.960 178.618,260.517 178.174 C 260.073 177.730,258.676 177.600,254.345 177.600 C 250.638 177.600,248.452 177.433,247.874 177.105 C 247.257 176.756,244.503 176.609,238.501 176.605 C 233.826 176.602,230.001 176.454,230.001 176.276 C 230.000 176.098,229.832 176.056,229.628 176.183 C 229.423 176.309,229.161 176.260,229.046 176.074 C 228.835 175.733,202.585 175.553,200.900 175.881 M303.300 183.253 C 302.906 183.652,302.800 192.881,302.800 226.680 C 302.800 254.471,302.662 269.600,302.408 269.600 C 302.192 269.600,301.906 270.037,301.772 270.571 C 301.637 271.105,301.274 271.639,300.964 271.759 C 300.654 271.878,300.400 272.341,300.400 272.787 C 300.400 273.234,300.220 273.600,300.000 273.600 C 299.780 273.600,299.600 273.819,299.600 274.086 C 299.600 274.353,299.249 274.938,298.819 275.386 C 296.973 277.309,296.400 278.024,296.400 278.400 C 296.400 278.620,296.207 278.800,295.971 278.800 C 295.418 278.800,294.400 279.818,294.400 280.371 C 294.400 280.607,294.160 280.800,293.868 280.800 C 293.575 280.800,293.094 281.250,292.800 281.800 C 292.506 282.350,292.025 282.800,291.732 282.800 C 291.440 282.800,291.200 283.070,291.200 283.400 C 291.200 283.730,291.007 284.000,290.771 284.000 C 290.218 284.000,289.200 285.018,289.200 285.571 C 289.200 285.807,288.930 286.000,288.600 286.000 C 288.270 286.000,288.000 286.191,288.000 286.424 C 288.000 286.657,287.859 286.760,287.687 286.654 C 287.515 286.547,286.952 287.077,286.435 287.830 C 285.919 288.584,285.160 289.200,284.748 289.200 C 284.337 289.200,284.000 289.380,284.000 289.600 C 284.000 289.820,283.730 290.000,283.400 290.000 C 283.070 290.000,282.800 290.270,282.800 290.600 C 282.800 290.930,282.530 291.200,282.200 291.200 C 281.870 291.200,281.600 291.386,281.600 291.613 C 281.600 291.839,281.285 292.141,280.900 292.283 C 280.515 292.424,279.804 292.959,279.319 293.470 C 278.835 293.982,278.332 294.400,278.202 294.400 C 278.072 294.400,277.480 294.850,276.887 295.400 C 276.293 295.950,275.607 296.400,275.360 296.400 C 275.114 296.400,274.574 296.850,274.161 297.400 C 273.748 297.950,273.183 298.400,272.905 298.400 C 272.627 298.400,272.400 298.670,272.400 299.000 C 272.400 299.340,272.041 299.600,271.573 299.600 C 271.119 299.600,270.157 300.050,269.436 300.600 C 268.714 301.150,267.916 301.600,267.662 301.600 C 267.408 301.600,267.200 301.870,267.200 302.200 C 267.200 302.577,266.820 302.800,266.176 302.800 C 265.596 302.800,265.260 302.973,265.400 303.200 C 265.536 303.420,265.361 303.600,265.011 303.600 C 264.661 303.600,264.271 303.870,264.145 304.200 C 264.018 304.530,263.549 304.800,263.103 304.800 C 262.657 304.800,261.875 305.250,261.365 305.800 C 260.855 306.350,260.070 306.800,259.619 306.800 C 259.158 306.800,258.800 307.062,258.800 307.400 C 258.800 307.746,258.438 308.000,257.946 308.000 C 257.476 308.000,256.675 308.450,256.165 309.000 C 255.655 309.550,255.041 310.000,254.799 310.000 C 254.033 310.000,251.832 311.280,250.919 312.257 C 250.435 312.776,249.606 313.200,249.078 313.200 C 248.549 313.200,247.667 313.617,247.117 314.127 C 246.567 314.636,245.475 315.358,244.691 315.730 C 243.906 316.102,243.205 316.568,243.132 316.766 C 243.059 316.963,242.460 317.186,241.800 317.262 C 241.140 317.338,240.210 317.815,239.733 318.322 C 239.257 318.830,238.492 319.273,238.033 319.307 C 237.575 319.342,237.200 319.602,237.200 319.885 C 237.200 320.168,236.750 320.400,236.200 320.400 C 235.650 320.400,235.200 320.580,235.200 320.800 C 235.200 321.020,234.744 321.200,234.187 321.200 C 233.631 321.200,233.071 321.470,232.945 321.800 C 232.818 322.130,232.464 322.400,232.157 322.400 C 231.851 322.400,231.600 322.670,231.600 323.000 C 231.600 323.359,231.231 323.600,230.680 323.600 C 230.174 323.600,229.581 323.779,229.362 323.998 C 229.144 324.216,228.478 324.436,227.882 324.485 C 227.287 324.534,226.799 324.760,226.797 324.987 C 226.793 325.435,224.964 326.400,224.120 326.400 C 223.834 326.400,223.600 326.670,223.600 327.000 C 223.600 327.433,223.156 327.600,222.000 327.600 C 220.977 327.600,220.400 327.782,220.400 328.106 C 220.400 328.384,219.680 328.923,218.800 329.304 C 217.920 329.686,217.200 330.178,217.200 330.399 C 217.200 330.619,216.570 330.800,215.800 330.800 C 215.030 330.800,214.400 330.966,214.400 331.168 C 214.400 331.371,213.860 331.655,213.200 331.800 C 212.540 331.945,212.000 332.229,212.000 332.432 C 212.000 332.634,211.724 332.800,211.387 332.800 C 211.051 332.800,210.671 333.070,210.545 333.400 C 210.403 333.770,209.795 334.000,208.957 334.000 C 208.211 334.000,207.600 334.180,207.600 334.400 C 207.600 334.620,207.352 334.800,207.049 334.800 C 206.746 334.800,206.274 335.070,206.000 335.400 C 205.726 335.730,205.074 336.000,204.551 336.000 C 204.028 336.000,203.600 336.180,203.600 336.400 C 203.600 336.620,203.234 336.800,202.787 336.800 C 202.341 336.800,201.869 337.075,201.740 337.412 C 201.592 337.798,201.228 337.936,200.753 337.785 C 200.023 337.553,200.000 338.110,200.000 355.740 C 200.000 365.747,199.900 374.196,199.777 374.516 C 199.442 375.388,200.777 375.707,201.842 375.009 C 202.354 374.674,203.228 374.400,203.786 374.400 C 204.344 374.400,204.800 374.220,204.800 374.000 C 204.800 373.780,205.138 373.600,205.551 373.600 C 205.964 373.600,206.526 373.330,206.800 373.000 C 207.074 372.670,207.822 372.400,208.462 372.400 C 209.127 372.400,209.724 372.143,209.855 371.800 C 209.982 371.470,210.516 371.200,211.043 371.200 C 211.569 371.200,212.000 371.020,212.000 370.800 C 212.000 370.580,212.366 370.400,212.813 370.400 C 213.259 370.400,213.729 370.130,213.855 369.800 C 213.997 369.430,214.605 369.200,215.443 369.200 C 216.189 369.200,216.802 369.065,216.804 368.900 C 216.806 368.735,217.616 368.245,218.604 367.810 C 219.592 367.376,220.400 366.791,220.400 366.510 C 220.400 366.194,220.932 366.000,221.800 366.000 C 222.570 366.000,223.200 365.820,223.200 365.600 C 223.200 365.380,223.656 365.200,224.213 365.200 C 224.769 365.200,225.329 364.930,225.455 364.600 C 225.582 364.270,226.116 364.000,226.643 364.000 C 227.169 364.000,227.600 363.840,227.600 363.643 C 227.600 363.447,228.050 363.174,228.600 363.036 C 229.150 362.898,229.600 362.608,229.600 362.392 C 229.600 362.177,229.977 362.000,230.438 362.000 C 231.300 362.000,233.696 360.835,233.933 360.300 C 234.007 360.135,234.502 360.000,235.033 360.000 C 235.626 360.000,236.000 359.768,236.000 359.400 C 236.000 358.981,236.422 358.800,237.400 358.800 C 238.170 358.800,238.800 358.620,238.800 358.400 C 238.800 358.180,239.051 358.000,239.357 358.000 C 239.664 358.000,240.018 357.730,240.145 357.400 C 240.271 357.070,240.741 356.800,241.187 356.800 C 241.643 356.800,242.000 356.536,242.000 356.200 C 242.000 355.817,242.385 355.600,243.066 355.600 C 244.274 355.600,247.200 354.413,247.200 353.923 C 247.200 353.745,247.470 353.600,247.800 353.600 C 248.130 353.600,248.400 353.420,248.400 353.200 C 248.400 352.980,248.766 352.800,249.213 352.800 C 249.659 352.800,250.129 352.530,250.255 352.200 C 250.382 351.870,250.922 351.600,251.455 351.600 C 251.989 351.600,252.529 351.330,252.655 351.000 C 252.782 350.670,253.316 350.400,253.843 350.400 C 254.369 350.400,254.801 350.265,254.803 350.100 C 254.806 349.642,257.165 348.400,258.032 348.400 C 258.455 348.400,258.800 348.130,258.800 347.800 C 258.800 347.427,259.178 347.200,259.800 347.200 C 260.350 347.200,260.800 347.020,260.800 346.800 C 260.800 346.580,261.070 346.400,261.400 346.400 C 261.730 346.400,262.000 346.130,262.000 345.800 C 262.000 345.400,262.400 345.200,263.200 345.200 C 263.860 345.200,264.400 345.020,264.400 344.800 C 264.400 344.580,264.760 344.400,265.200 344.400 C 265.640 344.400,266.000 344.151,266.000 343.847 C 266.000 343.542,266.315 343.184,266.700 343.051 C 267.085 342.918,267.940 342.460,268.600 342.034 C 269.260 341.607,270.115 341.245,270.500 341.229 C 270.885 341.213,271.200 340.930,271.200 340.600 C 271.200 340.270,271.434 340.000,271.720 340.000 C 272.639 340.000,274.394 339.016,274.397 338.500 C 274.399 338.225,274.850 338.000,275.400 338.000 C 276.022 338.000,276.400 337.773,276.400 337.400 C 276.400 337.027,276.778 336.800,277.400 336.800 C 277.950 336.800,278.400 336.620,278.400 336.400 C 278.400 336.180,278.670 336.000,279.000 336.000 C 279.330 336.000,279.600 335.730,279.600 335.400 C 279.600 335.027,279.978 334.800,280.600 334.800 C 281.150 334.800,281.600 334.620,281.600 334.400 C 281.600 334.180,281.851 334.000,282.157 334.000 C 282.464 334.000,282.818 333.730,282.945 333.400 C 283.071 333.070,283.541 332.800,283.987 332.800 C 284.443 332.800,284.800 332.536,284.800 332.200 C 284.800 331.870,285.034 331.600,285.320 331.600 C 286.239 331.600,287.994 330.616,287.997 330.100 C 287.999 329.825,288.270 329.600,288.600 329.600 C 288.930 329.600,289.200 329.440,289.200 329.243 C 289.200 329.047,289.650 328.774,290.200 328.636 C 290.750 328.498,291.200 328.208,291.200 327.992 C 291.200 327.777,291.566 327.600,292.013 327.600 C 292.459 327.600,292.929 327.330,293.055 327.000 C 293.182 326.670,293.459 326.400,293.671 326.400 C 294.190 326.400,295.200 325.362,295.200 324.829 C 295.200 324.593,295.584 324.400,296.054 324.400 C 296.524 324.400,297.325 323.950,297.835 323.400 C 298.345 322.850,298.950 322.400,299.181 322.400 C 299.411 322.400,299.600 322.130,299.600 321.800 C 299.600 321.470,299.945 321.200,300.366 321.200 C 300.787 321.200,301.749 320.615,302.504 319.900 C 304.086 318.402,305.108 317.675,306.100 317.342 C 306.485 317.212,306.800 316.858,306.800 316.553 C 306.800 316.249,306.993 316.000,307.229 316.000 C 307.782 316.000,308.800 314.982,308.800 314.429 C 308.800 314.193,309.115 313.997,309.500 313.993 C 309.885 313.989,310.624 313.539,311.142 312.993 C 311.660 312.447,312.245 312.000,312.442 312.000 C 312.639 312.000,312.800 311.730,312.800 311.400 C 312.800 311.070,312.990 310.800,313.222 310.800 C 313.737 310.800,321.200 303.365,321.200 302.852 C 321.200 302.650,321.470 302.382,321.800 302.255 C 322.130 302.129,322.400 301.672,322.400 301.240 C 322.400 300.731,322.716 300.411,323.300 300.328 C 323.878 300.246,324.246 299.878,324.328 299.300 C 324.398 298.805,324.713 298.400,325.028 298.400 C 325.343 298.400,325.600 298.173,325.600 297.895 C 325.600 297.617,326.050 297.052,326.600 296.639 C 327.150 296.226,327.600 295.545,327.600 295.126 C 327.600 294.623,327.837 294.405,328.300 294.482 C 328.777 294.563,328.963 294.377,328.882 293.900 C 328.818 293.515,328.953 293.200,329.182 293.200 C 329.412 293.200,329.600 292.930,329.600 292.600 C 329.600 292.270,329.777 292.000,329.992 292.000 C 330.208 292.000,330.498 291.550,330.636 291.000 C 330.774 290.450,331.047 290.000,331.243 290.000 C 331.440 290.000,331.600 289.550,331.600 289.000 C 331.600 288.378,331.827 288.000,332.200 288.000 C 332.530 288.000,332.800 287.649,332.800 287.221 C 332.800 286.792,333.250 285.956,333.800 285.362 C 334.551 284.552,334.800 283.846,334.800 282.529 C 334.800 281.339,334.993 280.701,335.400 280.545 C 335.789 280.395,336.000 279.775,336.000 278.781 C 336.000 277.937,336.180 277.136,336.400 277.000 C 336.656 276.842,336.800 270.804,336.800 260.200 C 336.800 249.324,336.941 243.560,337.210 243.394 C 337.449 243.246,337.588 241.695,337.544 239.670 C 337.501 237.762,337.614 225.714,337.793 212.897 C 338.171 185.871,338.481 188.000,334.171 188.000 C 332.794 188.000,331.606 187.818,331.532 187.596 C 331.345 187.035,326.620 186.346,321.478 186.130 C 318.485 186.005,317.095 185.793,316.960 185.440 C 316.836 185.117,315.855 184.897,314.291 184.841 C 312.930 184.792,311.723 184.613,311.609 184.445 C 311.494 184.276,310.321 184.092,309.003 184.036 C 307.685 183.979,306.506 183.771,306.383 183.573 C 305.991 182.938,303.832 182.715,303.300 183.253 M199.905 242.190 C 200.021 275.190,199.774 272.602,202.686 271.349 C 207.825 269.139,208.823 268.461,212.310 264.809 C 218.401 258.432,221.136 245.764,219.012 233.762 C 217.233 223.702,209.339 214.476,200.931 212.629 L 199.800 212.380 199.905 242.190 M110.534 228.000 C 110.534 229.650,110.605 230.325,110.691 229.500 C 110.778 228.675,110.778 227.325,110.691 226.500 C 110.605 225.675,110.534 226.350,110.534 228.000 M62.667 232.667 C 62.271 233.062,62.355 234.912,62.800 235.600 C 63.080 236.034,63.189 235.674,63.194 234.300 C 63.200 232.371,63.142 232.191,62.667 232.667 M62.400 243.553 C 62.400 244.653,62.580 245.664,62.800 245.800 C 63.046 245.952,63.200 245.279,63.200 244.047 C 63.200 242.947,63.020 241.936,62.800 241.800 C 62.554 241.648,62.400 242.321,62.400 243.553 M197.600 374.586 C 197.600 374.688,197.956 374.962,198.391 375.195 C 199.036 375.541,199.139 375.506,198.948 375.009 C 198.741 374.469,197.600 374.111,197.600 374.586 " stroke="none" fill="#fa8905" fill-rule="evenodd"></path></g></svg>